<?xml version="1.0" encoding="UTF-8" ?>
<!DOCTYPE svg PUBLIC "-//W3C//DTD SVG 1.1//EN" "http://www.w3.org/Graphics/SVG/1.1/DTD/svg11.dtd">
<svg width="617pt" height="523pt" viewBox="0 0 617 523" version="1.1" xmlns="http://www.w3.org/2000/svg">
<g id="#ffffffff">
<path fill="#ffffff" opacity="1.00" d=" M 230.74 11.73 C 239.26 1.29 254.69 -1.82 267.04 2.91 C 274.47 5.29 278.71 13.21 279.45 20.59 C 281.17 28.99 278.57 37.84 273.69 44.73 C 267.76 52.39 257.50 54.25 250.29 60.31 C 242.04 68.12 239.04 79.42 236.57 90.08 C 230.89 85.33 223.78 81.30 221.08 73.98 C 213.31 53.57 216.35 28.54 230.74 11.73 M 236.63 38.65 C 232.81 53.89 233.38 69.93 235.44 85.39 C 237.98 70.62 236.01 55.25 240.84 40.89 C 242.91 33.85 250.53 28.75 249.57 20.91 C 242.40 24.08 238.49 31.36 236.63 38.65 Z" />
<path fill="#ffffff" opacity="1.00" d=" M 230.89 145.89 C 239.96 112.20 264.28 85.27 288.96 61.75 C 279.39 78.52 270.38 95.60 262.06 113.02 C 258.51 120.38 255.49 128.18 254.48 136.33 C 254.86 148.93 260.82 160.21 265.40 171.64 C 274.59 194.33 286.46 216.61 288.49 241.45 C 290.07 252.23 287.18 263.03 282.86 272.84 C 274.20 291.35 265.05 309.70 253.74 326.76 C 244.72 340.43 241.04 356.63 237.21 372.31 C 234.65 361.45 232.64 350.33 233.16 339.13 C 234.84 322.80 242.62 307.96 245.98 292.00 C 250.80 270.55 256.79 247.96 251.04 226.06 C 248.16 211.45 239.90 198.90 232.82 186.09 C 226.00 173.86 227.11 158.94 230.89 145.89 Z" />
<path fill="#ffffff" opacity="1.00" d=" M 315.03 95.05 C 329.71 88.41 347.13 87.02 362.39 92.57 C 388.32 102.58 403.91 132.52 398.46 159.58 C 394.60 184.36 381.15 206.00 370.14 228.07 C 355.33 257.71 349.77 291.76 329.83 318.82 C 322.49 328.98 309.57 336.02 296.87 332.21 C 288.48 328.36 280.48 322.93 274.29 316.04 C 276.04 311.18 279.02 306.87 281.47 302.34 C 287.93 306.48 293.27 312.38 300.10 315.92 C 309.46 319.31 317.23 310.99 322.32 304.31 C 341.57 278.07 347.90 245.38 363.00 217.00 C 372.95 197.96 380.53 177.04 380.62 155.34 C 380.64 138.00 371.31 120.02 354.92 113.07 C 341.82 108.13 325.82 106.44 313.49 114.29 C 311.82 120.66 312.89 128.60 307.26 133.26 C 300.86 139.59 289.74 138.75 283.65 132.35 C 274.74 124.65 279.66 107.11 291.46 105.75 C 300.54 105.31 307.11 98.54 315.03 95.05 Z" />
<path fill="#ffffff" opacity="1.00" d=" M 132.43 393.50 C 142.54 390.69 155.58 398.60 154.05 409.97 C 154.65 417.81 148.19 425.29 140.57 426.50 C 129.99 429.59 117.37 420.48 118.97 409.03 C 118.26 401.26 125.14 394.61 132.43 393.50 M 134.39 395.46 C 125.14 397.07 124.21 409.82 126.78 417.15 C 128.30 424.89 139.35 427.24 144.19 421.21 C 148.88 414.30 148.92 404.12 143.34 397.67 C 141.14 395.24 137.38 395.14 134.39 395.46 Z" />
<path fill="#ffffff" opacity="1.00" d=" M 184.65 403.67 C 187.36 396.77 194.80 392.71 202.05 392.97 C 207.89 392.59 212.03 397.55 216.55 400.54 C 216.04 401.25 215.03 402.66 214.52 403.37 C 211.85 400.72 209.20 398.07 206.55 395.41 C 202.30 396.05 197.76 396.59 194.11 399.08 C 189.82 404.74 188.69 413.02 192.97 419.02 C 196.38 425.02 204.13 423.64 210.03 423.53 C 209.97 420.78 209.85 415.27 209.79 412.52 C 207.55 411.52 205.49 410.87 203.33 409.88 C 207.55 409.52 211.77 409.18 216.00 408.87 C 216.02 412.77 216.07 420.56 216.09 424.46 C 208.30 426.03 199.86 428.96 192.38 424.56 C 184.86 421.21 181.12 411.17 184.65 403.67 Z" />
<path fill="#ffffff" opacity="1.00" d=" M 313.41 393.20 C 314.00 393.17 315.18 393.10 315.77 393.07 C 320.61 404.18 325.71 415.16 330.92 426.11 C 329.26 426.04 325.96 425.91 324.31 425.84 C 322.72 422.15 321.05 418.49 319.17 414.94 C 315.12 414.96 311.07 414.98 307.03 415.02 C 305.23 418.59 303.43 422.18 301.70 425.79 C 300.47 425.88 299.26 425.97 298.04 426.07 C 303.35 415.20 308.46 404.24 313.41 393.20 M 313.29 401.64 C 311.35 405.34 309.53 409.10 307.72 412.86 C 310.35 412.86 315.63 412.87 318.26 412.88 C 316.68 409.10 315.07 405.33 313.29 401.64 Z" />
<path fill="#ffffff" opacity="1.00" d=" M 438.38 392.75 C 441.10 394.19 441.87 397.37 443.22 399.90 C 447.21 408.86 451.45 417.72 455.05 426.85 C 448.00 427.16 446.44 419.93 443.68 415.12 C 439.44 415.06 435.23 415.02 431.01 415.00 C 429.31 418.64 427.66 422.31 425.99 425.97 C 425.19 425.96 423.57 425.92 422.77 425.90 C 427.81 414.78 432.68 403.55 438.38 392.75 M 437.26 401.75 C 435.52 405.50 433.80 409.26 432.04 413.00 C 434.79 413.00 440.29 412.98 443.04 412.97 C 441.09 409.24 439.19 405.48 437.26 401.75 Z" />
<path fill="#ffffff" opacity="1.00" d=" M 16.00 393.68 C 21.60 394.36 27.63 393.14 33.04 394.98 C 38.07 397.26 39.82 404.83 35.82 408.83 C 32.06 412.68 25.91 411.45 21.17 412.75 C 21.09 417.15 21.01 421.58 20.94 425.99 L 15.99 426.00 C 16.00 415.22 16.00 404.45 16.00 393.68 M 21.09 396.14 C 21.04 400.67 21.01 405.20 21.00 409.74 C 25.32 410.06 31.21 409.22 31.85 403.91 C 32.14 398.20 25.71 396.20 21.09 396.14 Z" />
<path fill="#ffffff" opacity="1.00" d=" M 67.00 393.73 C 74.08 394.82 84.80 391.06 89.08 398.96 C 92.04 404.08 86.40 408.36 82.95 411.32 C 86.52 416.34 90.37 421.18 93.55 426.46 C 83.17 427.50 80.37 415.45 73.73 410.13 C 73.49 414.10 73.01 422.03 72.77 426.00 C 71.33 426.00 68.45 426.00 67.01 426.00 C 67.00 415.24 67.00 404.48 67.00 393.73 M 73.03 395.47 C 73.07 400.32 73.14 405.15 73.20 410.02 C 79.24 409.33 84.41 405.62 83.99 398.86 C 80.40 397.55 76.75 396.37 73.03 395.47 Z" />
<path fill="#ffffff" opacity="1.00" d=" M 247.00 393.78 C 254.14 395.02 264.89 390.81 269.62 398.38 C 272.86 403.56 267.94 408.68 263.50 410.92 C 267.16 415.83 270.83 420.75 274.42 425.72 C 272.61 425.77 268.99 425.87 267.18 425.92 C 263.24 420.15 259.77 413.59 253.59 409.88 C 253.39 413.91 253.00 421.97 252.81 426.00 C 251.36 426.00 248.45 426.00 247.00 426.00 C 247.00 415.25 247.00 404.51 247.00 393.78 M 253.05 395.20 C 253.06 400.05 253.09 404.87 253.15 409.74 C 257.39 408.76 266.43 407.18 263.61 400.36 C 262.76 395.70 256.14 396.68 253.05 395.20 Z" />
<path fill="#ffffff" opacity="1.00" d=" M 359.15 392.99 C 362.37 393.10 364.62 394.45 365.90 397.06 C 369.63 403.74 372.85 410.70 376.72 417.31 C 380.67 409.66 384.57 401.98 388.31 394.22 C 389.98 394.15 393.32 394.02 394.99 393.96 C 395.00 404.64 395.00 415.31 395.00 426.00 C 393.52 426.00 390.55 426.00 389.06 426.00 C 388.99 417.56 388.91 409.13 388.72 400.70 C 384.30 409.38 380.02 418.14 375.34 426.69 C 370.46 418.13 366.12 409.27 361.22 400.72 C 361.07 409.14 361.02 417.57 360.95 426.00 C 360.46 426.00 359.47 425.99 358.98 425.99 C 358.97 414.99 358.96 403.99 359.15 392.99 Z" />
<path fill="#ffffff" opacity="1.00" d=" M 521.00 393.83 C 529.62 394.62 540.55 391.40 547.29 398.71 C 555.81 405.98 551.87 422.32 540.88 424.89 C 534.41 426.45 527.60 425.79 520.99 426.16 C 520.99 415.38 521.00 404.60 521.00 393.83 M 527.05 396.44 C 527.00 405.42 526.99 414.40 527.02 423.39 C 530.88 422.84 534.91 422.91 538.60 421.52 C 546.05 417.36 547.29 405.68 541.00 399.98 C 537.28 396.51 531.60 397.51 527.05 396.44 Z" />
<path fill="#ffffff" opacity="1.00" d=" M 582.00 393.77 C 589.88 394.15 597.82 393.83 605.68 394.79 C 599.78 395.37 593.90 395.81 588.01 396.24 C 588.01 398.91 588.01 404.26 588.01 406.93 C 590.75 406.96 596.25 407.02 598.99 407.05 C 598.99 407.77 598.99 409.22 598.99 409.94 C 596.24 409.97 590.75 410.03 588.00 410.06 C 587.98 414.59 588.01 419.16 588.00 423.70 C 593.89 423.97 599.84 424.15 605.71 424.96 C 597.81 425.65 589.90 425.86 581.99 426.16 C 581.99 415.36 582.00 404.56 582.00 393.77 Z" />
<path fill="#ffffff" opacity="1.00" d=" M 21.43 447.46 C 31.53 442.28 43.67 442.03 54.57 444.46 C 73.05 449.21 87.25 468.56 83.72 487.82 C 82.17 505.87 66.39 519.26 49.47 523.00 L 34.32 523.00 C 18.12 519.77 4.29 507.55 0.00 491.49 L 0.00 473.42 C 3.75 462.59 10.98 452.63 21.43 447.46 M 37.44 447.43 C 26.57 448.74 18.96 458.65 16.67 468.81 C 13.62 483.01 14.53 499.38 23.85 511.18 C 33.76 522.57 54.14 520.89 61.95 507.95 C 70.20 494.61 70.13 477.52 64.94 463.08 C 60.52 452.59 48.97 444.93 37.44 447.43 Z" />
<path fill="#ffffff" opacity="1.00" d=" M 262.44 448.45 C 270.25 441.64 281.50 442.26 291.02 443.94 C 299.64 445.67 303.99 453.55 307.87 460.58 C 305.54 461.69 303.21 462.79 300.87 463.88 C 298.19 459.76 296.05 455.03 291.83 452.22 C 285.22 446.68 274.32 447.15 268.29 453.30 C 264.73 457.85 266.47 464.75 270.96 468.02 C 281.93 476.63 296.57 480.22 305.71 491.27 C 310.24 496.24 309.57 503.65 307.63 509.63 C 304.66 517.12 296.72 520.54 289.63 523.00 L 274.34 523.00 C 264.96 520.60 257.37 513.96 253.61 505.04 C 256.08 504.06 258.56 503.11 261.04 502.19 C 265.84 511.48 275.76 520.81 287.06 517.18 C 295.21 516.54 301.25 505.49 294.87 499.10 C 285.47 487.53 268.07 486.13 259.11 473.92 C 253.14 466.49 255.16 454.35 262.44 448.45 Z" />
<path fill="#ffffff" opacity="1.00" d=" M 481.94 454.97 C 484.24 450.20 486.04 444.55 491.18 442.00 C 502.94 468.42 515.75 494.37 527.19 520.94 C 522.57 520.91 517.99 520.94 513.39 520.91 C 509.88 512.47 506.01 504.19 502.06 495.97 C 491.36 495.98 480.66 496.00 469.97 495.99 C 466.00 504.33 462.21 512.75 458.00 520.97 C 456.26 520.98 452.78 521.00 451.04 521.01 C 461.25 498.96 471.98 477.14 481.94 454.97 M 486.25 461.66 C 481.60 471.01 477.29 480.51 472.75 489.91 C 481.57 489.97 490.40 489.97 499.23 489.92 C 495.09 480.41 490.79 470.98 486.25 461.66 Z" />
<path fill="#ffffff" opacity="1.00" d=" M 106.01 445.01 C 119.29 445.03 132.59 444.50 145.85 445.36 C 155.60 446.55 165.95 454.18 165.12 465.01 C 165.43 472.69 158.22 477.82 152.41 481.45 C 159.59 483.73 167.60 488.17 168.49 496.43 C 171.76 507.92 161.53 518.83 150.58 520.41 C 135.76 521.68 120.86 520.88 106.01 520.98 C 105.99 495.65 105.98 470.33 106.01 445.01 M 119.00 449.70 C 119.00 459.51 118.99 469.32 118.99 479.13 C 127.56 478.72 136.55 479.95 144.70 476.71 C 151.94 472.23 153.34 461.57 147.86 455.15 C 139.49 449.20 128.69 450.21 119.00 449.70 M 119.00 483.85 C 119.00 494.31 119.00 504.77 119.00 515.24 C 128.65 514.59 139.04 516.35 148.07 512.08 C 157.50 506.83 156.29 491.68 146.94 487.09 C 138.39 482.61 128.22 484.29 119.00 483.85 Z" />
<path fill="#ffffff" opacity="1.00" d=" M 187.01 445.01 C 205.00 444.98 223.00 444.98 240.99 445.00 L 241.00 449.99 C 227.66 449.98 214.33 450.01 201.00 450.01 C 200.99 459.00 200.99 467.99 201.00 476.98 C 210.00 476.98 219.00 477.00 228.00 477.01 L 228.00 481.98 C 218.99 481.98 209.99 482.00 201.00 482.02 C 200.99 493.34 201.01 504.66 201.00 515.99 C 214.33 515.98 227.66 516.01 241.00 516.01 L 241.00 520.99 C 223.00 521.01 205.00 521.01 187.01 520.99 C 186.99 495.66 186.99 470.33 187.01 445.01 Z" />
<path fill="#ffffff" opacity="1.00" d=" M 330.01 445.00 C 334.32 444.98 338.66 445.00 342.99 445.00 C 343.01 470.33 343.01 495.67 342.99 521.00 C 338.65 520.98 334.33 521.00 330.01 521.00 C 329.98 495.66 329.99 470.33 330.01 445.00 Z" />
<path fill="#ffffff" opacity="1.00" d=" M 369.01 445.01 C 387.52 446.13 408.10 441.06 425.01 451.04 C 440.67 460.61 446.41 482.87 438.10 499.06 C 432.75 510.96 420.39 518.96 407.59 520.40 C 394.76 521.56 381.87 520.98 369.01 520.99 C 368.98 495.66 368.98 470.34 369.01 445.01 M 382.01 450.76 C 381.98 472.22 381.98 493.68 382.01 515.14 C 391.12 514.76 400.69 515.84 409.34 512.36 C 430.16 502.18 432.08 468.93 412.98 456.02 C 403.95 449.56 392.39 451.34 382.01 450.76 Z" />
<path fill="#ffffff" opacity="1.00" d=" M 543.02 444.95 C 558.95 445.35 575.23 443.57 590.93 447.05 C 605.53 450.94 615.41 464.69 617.00 479.32 L 617.00 485.55 C 615.36 500.48 605.14 514.13 590.64 518.66 C 575.13 522.64 558.84 520.62 543.02 521.04 C 542.97 495.67 542.97 470.31 543.02 444.95 M 557.01 450.76 C 556.98 472.22 556.98 493.68 557.01 515.14 C 567.33 514.65 579.06 516.38 587.95 509.91 C 605.74 497.82 605.66 467.30 587.37 455.61 C 578.39 449.59 567.17 451.37 557.01 450.76 Z" />
</g>
</svg>
