<?xml version="1.0" encoding="UTF-8" ?>
<!DOCTYPE svg PUBLIC "-//W3C//DTD SVG 1.1//EN" "http://www.w3.org/Graphics/SVG/1.1/DTD/svg11.dtd">
<svg width="617pt" height="523pt" viewBox="0 0 617 523" version="1.1" xmlns="http://www.w3.org/2000/svg">
<g id="#ffffffff">
<path fill="#ffffff" opacity="1.00" d=" M 210.98 18.07 C 217.88 13.74 225.65 9.89 233.98 10.38 C 237.89 10.47 241.80 10.25 245.71 10.46 C 251.19 12.07 256.50 14.49 261.05 17.98 C 265.45 22.88 269.07 29.02 269.21 35.78 C 270.90 40.70 271.04 46.30 269.25 51.21 C 269.21 57.44 265.81 62.86 263.18 68.28 C 260.62 71.35 257.68 74.08 254.81 76.85 C 249.85 80.74 243.69 82.53 237.98 84.98 C 233.20 87.66 228.83 91.24 225.68 95.76 C 223.13 100.01 219.48 103.71 218.45 108.71 C 215.67 114.24 214.28 120.31 212.49 126.20 C 211.91 127.75 212.18 129.44 212.11 131.05 C 206.01 126.13 198.35 122.71 194.24 115.70 C 190.37 111.00 188.43 105.16 187.24 99.28 C 185.76 96.84 186.92 93.87 185.95 91.33 C 184.25 88.14 185.24 84.43 185.00 80.99 C 185.32 75.95 184.04 70.60 186.29 65.87 C 186.39 56.65 190.43 48.04 193.61 39.52 C 196.78 35.02 198.78 29.69 202.80 25.79 C 205.51 23.20 207.94 20.28 210.98 18.07 M 224.53 39.37 C 221.56 42.47 217.88 45.14 216.30 49.29 C 213.82 53.97 212.01 58.95 210.82 64.11 C 210.75 66.19 210.61 68.26 209.46 70.07 C 209.24 72.98 209.55 75.90 209.37 78.81 C 208.96 80.53 207.92 82.11 208.13 83.95 C 208.16 94.93 208.08 105.91 208.17 116.89 C 208.66 119.50 209.70 122.02 209.32 124.75 C 209.70 124.76 210.48 124.78 210.86 124.79 C 210.86 121.22 210.56 117.65 210.77 114.08 C 211.29 112.40 212.34 110.84 212.20 109.01 C 212.24 102.70 212.14 96.38 212.18 90.07 C 212.02 88.25 213.61 86.82 213.48 85.02 C 213.65 81.81 212.91 78.41 214.33 75.38 C 215.47 70.74 216.52 66.06 218.53 61.69 C 220.68 55.10 225.75 50.15 229.67 44.64 C 229.75 43.22 229.73 41.80 229.76 40.38 C 228.26 39.48 226.13 37.71 224.53 39.37 Z" />
<path fill="#ffffff" opacity="1.00" d=" M 277.79 96.78 C 279.35 95.24 280.94 93.56 283.09 92.88 C 279.30 96.85 277.86 102.34 274.63 106.70 C 271.61 112.00 269.28 117.70 265.83 122.76 C 259.24 135.56 252.99 148.53 246.45 161.36 C 242.69 169.76 239.07 178.25 236.58 187.11 C 236.41 189.85 237.03 192.86 234.86 195.00 C 237.08 197.15 236.44 200.21 236.51 203.00 C 239.33 217.22 245.85 230.44 251.31 243.81 C 255.11 252.91 258.75 262.11 262.94 271.04 C 268.39 283.44 272.98 296.26 276.91 309.23 C 277.70 314.17 280.00 318.81 279.94 323.88 C 281.00 326.83 281.55 329.87 281.25 333.02 C 280.81 335.20 282.71 336.87 282.57 339.01 C 282.42 343.12 282.89 347.30 282.33 351.37 C 280.41 354.19 281.83 357.70 280.93 360.78 C 276.39 377.02 268.26 391.88 261.01 407.01 C 257.45 413.12 254.88 419.76 250.85 425.59 C 244.38 438.84 235.34 450.62 228.39 463.60 C 222.60 476.62 218.03 490.20 214.91 504.11 C 214.51 507.36 212.95 510.37 213.54 513.74 C 211.76 514.97 211.82 511.58 211.20 510.62 C 210.69 506.76 209.17 503.14 209.24 499.20 C 207.38 496.13 208.52 492.51 207.96 489.18 C 205.58 483.10 206.98 476.43 206.70 470.06 C 208.34 466.66 208.10 462.97 208.27 459.31 C 209.29 457.40 209.45 455.26 209.55 453.15 C 214.74 436.86 220.80 420.84 224.54 404.12 C 226.50 398.12 227.40 391.86 228.82 385.74 C 230.08 383.48 229.24 380.78 230.38 378.50 C 231.96 375.75 230.32 372.35 231.93 369.63 C 233.26 366.69 231.50 363.14 233.30 360.31 C 234.91 354.03 232.00 346.94 235.30 340.99 C 232.70 336.45 234.20 331.21 233.59 326.29 C 231.91 323.62 232.87 320.33 231.42 317.56 C 230.12 309.16 227.03 301.17 223.62 293.45 C 221.45 286.76 217.19 281.14 214.01 274.96 C 209.27 267.43 205.51 259.35 201.67 251.35 C 201.28 248.83 200.32 246.45 199.86 243.96 C 199.77 237.64 199.81 231.32 199.84 225.01 C 201.98 216.61 202.96 207.84 206.27 199.66 C 207.19 195.95 208.43 192.32 209.91 188.79 C 212.31 183.85 213.68 178.40 216.90 173.87 C 218.95 171.04 220.02 167.67 221.88 164.73 C 229.29 153.35 236.84 141.97 245.73 131.72 C 247.29 128.46 250.42 126.44 252.61 123.66 C 255.90 118.11 261.27 114.27 265.52 109.50 C 269.39 105.06 273.74 101.06 277.79 96.78 Z" />
<path fill="#ffffff" opacity="1.00" d=" M 343.75 130.92 C 348.92 128.78 354.62 130.13 360.04 129.74 C 363.48 129.30 366.48 131.48 369.90 131.32 C 380.08 133.46 390.24 137.01 398.49 143.55 C 402.88 147.85 408.80 150.70 411.76 156.37 C 416.86 161.79 420.81 168.18 424.36 174.71 C 426.90 181.09 429.30 187.58 430.74 194.33 C 432.99 199.05 430.16 204.66 432.69 209.28 C 433.59 210.92 432.24 212.56 431.78 214.10 C 431.18 217.81 432.20 221.70 431.27 225.35 C 429.81 227.84 430.69 230.86 429.54 233.47 C 424.08 258.32 411.87 280.83 400.49 303.36 C 394.23 312.56 390.88 323.19 385.82 333.00 C 381.93 341.08 379.86 349.89 376.19 358.04 C 374.05 366.23 370.12 373.80 367.84 381.94 C 364.77 389.50 361.75 397.12 358.79 404.72 C 356.15 409.40 354.35 414.47 352.18 419.36 C 347.23 427.00 343.66 435.67 337.27 442.30 C 335.16 444.55 334.05 447.69 331.36 449.39 C 329.10 450.73 327.11 452.43 325.20 454.21 C 316.96 460.42 306.26 462.30 296.18 460.86 C 289.45 458.99 283.15 455.64 277.66 451.36 C 274.79 448.13 270.67 446.42 267.98 442.99 C 266.40 440.88 263.02 440.49 262.04 438.01 C 266.06 432.38 268.63 425.94 272.29 420.10 C 275.31 419.83 276.96 422.35 279.18 423.87 C 283.30 426.31 285.84 430.65 290.04 433.01 C 293.89 436.49 298.74 439.11 303.98 439.40 C 313.09 437.84 320.95 431.62 325.91 423.96 C 330.49 419.30 333.33 413.38 336.86 407.97 C 340.41 400.93 345.02 394.42 347.68 386.93 C 349.14 382.19 352.46 378.24 353.48 373.35 C 357.22 365.28 360.03 356.80 363.55 348.64 C 370.09 327.56 380.62 308.09 390.44 288.42 C 391.52 283.83 394.50 280.01 395.55 275.41 C 397.48 270.47 398.80 265.34 400.64 260.38 C 402.34 255.90 402.67 251.02 404.30 246.50 C 404.69 244.76 404.43 242.95 404.71 241.20 C 407.43 235.74 404.21 229.21 407.03 223.72 C 408.14 221.38 406.11 219.26 405.88 217.00 C 405.69 214.02 405.92 211.03 405.80 208.05 C 403.04 195.95 398.85 183.25 389.14 174.85 C 383.36 168.17 375.52 163.63 367.24 160.75 C 362.30 158.74 356.97 158.48 351.94 156.92 C 344.62 157.16 337.02 155.81 329.98 158.30 C 324.35 159.60 318.92 162.02 314.21 165.34 C 312.97 167.68 313.57 170.98 315.09 173.18 C 313.70 175.47 313.73 178.13 313.51 180.71 C 311.28 185.69 308.07 190.53 302.99 192.95 C 299.69 195.13 295.65 195.12 292.01 196.40 C 286.96 195.00 281.46 194.27 277.45 190.55 C 275.00 187.99 272.02 185.73 270.83 182.24 C 269.74 178.07 268.22 173.68 269.50 169.38 C 271.21 164.82 272.77 159.86 276.69 156.68 C 279.35 153.70 283.38 152.78 287.02 151.57 C 290.91 151.21 295.34 152.58 298.51 149.59 C 304.91 143.70 313.06 140.42 320.73 136.57 C 325.76 134.03 331.44 133.48 336.73 131.71 C 338.97 130.83 341.47 131.61 343.75 130.92 Z" />
</g>
</svg>
