<?xml version="1.0" encoding="UTF-8" ?>
<!DOCTYPE svg PUBLIC "-//W3C//DTD SVG 1.1//EN" "http://www.w3.org/Graphics/SVG/1.1/DTD/svg11.dtd">
<svg width="617pt" height="523pt" viewBox="0 0 617 523" version="1.1" xmlns="http://www.w3.org/2000/svg">
<g id="#89c33dfc">
<path fill="#89c33d" opacity="1.00" d=" M 246.82 1.72 C 255.51 0.23 265.61 0.15 272.59 6.43 C 284.12 17.73 281.52 38.62 269.78 48.77 C 263.65 53.24 256.16 55.41 250.29 60.31 C 242.19 67.97 239.27 79.03 236.45 89.39 C 230.54 85.16 223.95 80.99 221.12 73.96 C 215.13 59.16 216.00 42.21 221.33 27.34 C 225.73 15.78 234.42 5.01 246.82 1.72 M 237.30 36.21 C 232.45 52.46 233.72 69.76 235.24 86.41 C 238.29 70.41 235.47 53.41 242.24 38.18 C 245.06 32.62 250.67 27.74 249.53 20.90 C 243.40 23.91 239.01 29.62 237.30 36.21 Z" />
</g>
<g id="#0fb0e5fe">
<path fill="#0fb0e5" opacity="1.00" d=" M 232.14 142.00 C 241.76 109.90 265.48 84.61 288.76 61.57 C 283.05 72.83 276.44 83.60 270.97 94.99 C 264.57 108.33 256.41 121.35 254.48 136.33 C 255.14 150.99 262.34 164.01 267.70 177.31 C 277.20 199.29 287.87 221.66 288.73 246.05 C 289.80 255.89 286.05 265.28 282.18 274.12 C 276.17 287.21 269.61 300.05 262.51 312.58 C 256.78 322.56 249.59 331.83 245.68 342.75 C 241.95 352.33 239.70 362.36 237.21 372.31 C 235.29 363.97 233.53 355.54 233.23 346.97 C 231.83 332.24 238.39 318.46 242.51 304.69 C 248.29 285.23 252.61 265.21 253.54 244.89 C 253.25 230.67 249.41 216.63 242.96 203.99 C 237.80 193.76 230.34 184.40 228.21 172.89 C 227.00 162.42 228.89 151.93 232.14 142.00 Z" />
</g>
<g id="#ec1c24fe">
<path fill="#ec1c24" opacity="1.00" d=" M 304.11 101.20 C 324.92 86.80 355.95 83.87 376.35 100.61 C 392.31 113.04 401.25 133.83 398.99 154.01 C 397.04 179.46 383.43 201.83 372.13 224.06 C 355.77 254.89 350.56 291.01 329.41 319.38 C 323.45 326.72 314.92 333.39 304.96 332.91 C 292.29 334.28 283.32 323.13 273.86 316.52 C 276.46 311.64 279.06 306.74 282.42 302.33 C 290.38 307.57 297.08 319.07 308.13 316.21 C 316.83 312.88 322.41 304.74 327.15 297.11 C 343.25 271.52 349.58 241.41 364.00 215.00 C 372.73 198.78 378.03 180.97 380.68 162.79 C 381.06 161.68 381.22 160.49 381.05 159.33 C 380.95 157.78 380.96 156.23 381.07 154.68 C 381.25 153.51 381.11 152.33 380.73 151.22 C 378.93 141.63 376.46 131.73 369.73 124.27 C 360.84 113.04 345.89 108.51 332.00 109.10 C 325.42 108.78 319.02 110.97 313.42 114.27 C 311.50 120.19 312.41 127.20 308.35 132.33 C 305.60 135.27 301.54 137.14 297.49 137.03 C 296.49 136.99 295.50 136.99 294.51 137.04 C 287.15 137.22 279.95 130.98 279.45 123.57 C 278.28 118.06 280.99 112.56 284.68 108.67 C 290.27 104.13 298.60 106.12 304.11 101.20 Z" />
</g>
<g id="#8b2a2e94">
<path fill="#8b2a2e" opacity="0.58" d=" M 294.51 137.04 C 295.50 136.99 296.49 136.99 297.49 137.03 C 298.10 139.09 293.90 139.10 294.51 137.04 Z" />
<path fill="#8b2a2e" opacity="0.58" d=" M 380.73 151.22 C 381.11 152.33 381.25 153.51 381.07 154.68 C 379.19 154.82 379.04 151.62 380.73 151.22 Z" />
<path fill="#8b2a2e" opacity="0.58" d=" M 380.68 162.79 C 378.99 162.37 379.17 159.17 381.05 159.33 C 381.22 160.49 381.06 161.68 380.68 162.79 Z" />
</g>
<g id="#010101fc">
<path fill="#010101" opacity="1.00" d=" M 132.43 393.50 C 142.54 390.68 155.58 398.60 154.05 409.97 C 154.64 417.81 148.19 425.29 140.57 426.50 C 129.99 429.59 117.37 420.48 118.97 409.03 C 118.26 401.26 125.14 394.61 132.43 393.50 M 134.39 395.46 C 125.14 397.07 124.21 409.82 126.78 417.15 C 128.30 424.89 139.35 427.24 144.19 421.21 C 148.88 414.30 148.92 404.12 143.34 397.67 C 141.14 395.24 137.38 395.14 134.39 395.46 Z" />
</g>
<g id="#000000fd">
<path fill="#000000" opacity="1.00" d=" M 184.65 403.67 C 187.36 396.77 194.80 392.69 202.05 392.97 C 207.89 392.59 212.02 397.57 216.56 400.53 C 216.05 401.24 215.02 402.67 214.50 403.38 C 211.83 400.72 209.19 398.05 206.55 395.38 C 201.28 396.40 193.64 396.61 191.94 402.97 C 188.85 408.73 190.18 415.88 194.14 420.88 C 198.60 424.68 204.64 423.56 210.03 423.57 C 209.98 420.80 209.87 415.26 209.82 412.48 C 207.57 411.49 205.51 410.87 203.34 409.92 C 207.55 409.53 211.77 409.18 215.99 408.86 C 216.02 412.77 216.07 420.57 216.10 424.47 C 208.30 425.99 199.86 428.97 192.38 424.56 C 184.86 421.20 181.12 411.17 184.65 403.67 Z" />
<path fill="#000000" opacity="1.00" d=" M 313.41 393.19 C 314.00 393.16 315.18 393.10 315.77 393.07 C 320.60 404.18 325.71 415.16 330.92 426.09 C 329.26 426.03 325.95 425.91 324.30 425.85 C 322.72 422.16 321.06 418.50 319.19 414.94 C 315.12 414.94 311.07 414.97 307.01 415.02 C 305.22 418.60 303.42 422.19 301.71 425.81 C 300.48 425.89 299.26 425.97 298.04 426.05 C 303.37 415.20 308.47 404.23 313.41 393.19 M 313.29 401.64 C 311.35 405.34 309.53 409.09 307.71 412.86 C 310.35 412.86 315.63 412.87 318.27 412.88 C 316.67 409.10 315.07 405.33 313.29 401.64 Z" />
<path fill="#000000" opacity="1.00" d=" M 16.01 393.68 C 21.60 394.35 27.62 393.15 33.04 394.98 C 38.07 397.26 39.82 404.83 35.82 408.83 C 32.06 412.69 25.88 411.44 21.15 412.74 C 21.08 417.14 21.01 421.58 20.96 425.99 L 16.00 426.00 C 16.00 415.22 16.00 404.45 16.01 393.68 M 21.09 396.13 C 21.05 400.67 21.02 405.21 21.01 409.76 C 25.31 410.04 31.23 409.21 31.84 403.91 C 32.15 398.21 25.70 396.20 21.09 396.13 Z" />
<path fill="#000000" opacity="1.00" d=" M 247.00 393.77 C 254.14 395.02 264.89 390.82 269.62 398.38 C 272.86 403.56 267.95 408.69 263.50 410.92 C 267.13 415.85 270.85 420.73 274.41 425.72 C 272.61 425.77 268.99 425.87 267.18 425.92 C 263.22 420.17 259.79 413.58 253.59 409.88 C 253.40 413.91 253.01 421.97 252.82 426.00 C 251.36 426.00 248.46 426.00 247.00 426.00 C 247.00 415.25 247.00 404.51 247.00 393.77 M 253.06 395.18 C 253.06 400.04 253.10 404.88 253.16 409.75 C 257.38 408.72 266.45 407.18 263.61 400.36 C 262.76 395.69 256.13 396.70 253.06 395.18 Z" />
<path fill="#000000" opacity="1.00" d=" M 21.43 447.46 C 31.53 442.28 43.67 442.04 54.57 444.46 C 73.05 449.21 87.25 468.56 83.72 487.82 C 82.17 505.87 66.39 519.26 49.47 523.00 L 34.32 523.00 C 18.13 519.77 4.29 507.55 0.00 491.49 L 0.00 473.42 C 3.74 462.59 10.98 452.63 21.43 447.46 M 37.44 447.43 C 26.57 448.74 18.95 458.65 16.67 468.81 C 13.62 483.01 14.53 499.38 23.85 511.18 C 33.76 522.57 54.15 520.89 61.95 507.95 C 70.20 494.61 70.13 477.52 64.94 463.08 C 60.52 452.60 48.97 444.93 37.44 447.43 Z" />
</g>
<g id="#000000fe">
<path fill="#000000" opacity="1.00" d=" M 438.35 392.81 C 441.20 394.06 441.79 397.46 443.21 399.90 C 447.20 408.86 451.46 417.73 455.05 426.86 C 448.01 427.13 446.43 419.94 443.68 415.12 C 439.44 415.06 435.22 415.02 431.00 414.99 C 429.30 418.65 427.67 422.33 426.01 426.00 C 425.20 425.97 423.58 425.91 422.77 425.88 C 427.81 414.79 432.67 403.58 438.35 392.81 M 437.27 401.75 C 435.52 405.50 433.79 409.25 432.04 413.00 C 434.79 412.99 440.29 412.98 443.04 412.97 C 441.09 409.24 439.19 405.48 437.27 401.75 Z" />
<path fill="#000000" opacity="1.00" d=" M 67.00 393.73 C 74.08 394.82 84.80 391.06 89.08 398.96 C 92.04 404.09 86.40 408.36 82.94 411.32 C 86.51 416.34 90.38 421.18 93.56 426.47 C 83.17 427.50 80.40 415.45 73.73 410.15 C 73.49 414.11 73.02 422.03 72.79 426.00 C 71.34 426.00 68.45 426.00 67.01 426.00 C 67.00 415.24 67.00 404.48 67.00 393.73 M 73.03 395.44 C 73.07 400.31 73.14 405.16 73.22 410.05 C 79.28 409.32 84.35 405.59 84.04 398.85 C 80.41 397.58 76.75 396.39 73.03 395.44 Z" />
<path fill="#000000" opacity="1.00" d=" M 359.17 392.97 C 362.36 393.11 364.60 394.48 365.89 397.07 C 369.64 403.74 372.86 410.70 376.73 417.32 C 380.65 409.65 384.59 401.98 388.30 394.21 C 389.97 394.15 393.31 394.03 394.98 393.97 C 395.00 404.64 395.00 415.32 395.00 426.00 C 393.51 426.00 390.55 426.00 389.06 426.00 C 388.99 417.56 388.91 409.13 388.73 400.70 C 384.29 409.38 380.03 418.15 375.33 426.69 C 370.48 418.12 366.11 409.28 361.22 400.72 C 361.05 409.14 361.01 417.57 360.95 426.00 C 360.46 426.00 359.47 426.00 358.98 426.00 C 358.97 414.98 358.96 403.98 359.17 392.97 Z" />
<path fill="#000000" opacity="1.00" d=" M 521.00 393.82 C 529.62 394.62 540.55 391.41 547.29 398.71 C 555.81 405.97 551.87 422.32 540.88 424.89 C 534.41 426.45 527.60 425.79 521.00 426.17 C 520.99 415.38 520.99 404.60 521.00 393.82 M 527.05 396.43 C 527.00 405.41 527.00 414.40 527.01 423.40 C 532.04 422.53 538.44 423.47 541.79 418.78 C 546.47 413.60 546.11 404.69 541.00 399.98 C 537.27 396.51 531.59 397.51 527.05 396.43 Z" />
<path fill="#000000" opacity="1.00" d=" M 262.44 448.45 C 270.25 441.64 281.50 442.26 291.03 443.94 C 299.64 445.69 303.96 453.55 307.88 460.56 C 305.55 461.68 303.22 462.79 300.88 463.89 C 298.19 459.77 296.06 455.02 291.83 452.21 C 285.22 446.68 274.32 447.14 268.29 453.30 C 264.73 457.85 266.48 464.75 270.96 468.02 C 281.93 476.63 296.57 480.22 305.71 491.27 C 310.24 496.24 309.57 503.65 307.63 509.63 C 304.66 517.12 296.72 520.54 289.63 523.00 L 274.34 523.00 C 264.96 520.60 257.38 513.96 253.60 505.05 C 256.07 504.06 258.56 503.11 261.05 502.18 C 265.83 511.49 275.76 520.81 287.06 517.18 C 295.21 516.54 301.25 505.49 294.87 499.10 C 285.47 487.53 268.07 486.13 259.11 473.92 C 253.14 466.49 255.15 454.35 262.44 448.45 Z" />
<path fill="#000000" opacity="1.00" d=" M 483.84 450.92 C 485.42 447.35 487.54 443.85 491.14 441.97 C 502.95 468.38 515.72 494.36 527.19 520.93 C 522.57 520.90 517.99 520.94 513.38 520.91 C 509.91 512.47 505.99 504.21 502.07 495.97 C 491.36 495.99 480.66 495.99 469.96 495.99 C 466.01 504.34 462.20 512.75 458.01 520.98 C 456.27 520.99 452.78 521.00 451.04 521.01 C 461.93 497.62 473.21 474.42 483.84 450.92 M 486.25 461.66 C 481.60 471.01 477.29 480.51 472.75 489.91 C 481.57 489.97 490.40 489.97 499.23 489.92 C 495.09 480.41 490.78 470.98 486.25 461.66 Z" />
<path fill="#000000" opacity="1.00" d=" M 106.01 445.01 C 119.29 445.03 132.59 444.51 145.86 445.36 C 155.60 446.55 165.95 454.18 165.11 465.01 C 165.43 472.70 158.22 477.82 152.40 481.45 C 159.32 483.72 167.10 487.75 168.36 495.65 C 172.10 507.36 161.85 518.82 150.58 520.41 C 135.76 521.68 120.86 520.88 106.01 520.98 C 105.99 495.65 105.99 470.33 106.01 445.01 M 119.00 449.70 C 118.99 459.51 119.00 469.32 118.99 479.14 C 127.56 478.72 136.55 479.93 144.70 476.71 C 151.94 472.23 153.34 461.57 147.87 455.15 C 139.49 449.21 128.69 450.20 119.00 449.70 M 119.00 483.84 C 119.00 494.31 119.00 504.78 119.00 515.25 C 128.65 514.59 139.04 516.34 148.07 512.08 C 157.50 506.83 156.29 491.68 146.94 487.09 C 138.39 482.62 128.22 484.29 119.00 483.84 Z" />
<path fill="#000000" opacity="1.00" d=" M 369.01 445.01 C 387.52 446.13 408.10 441.06 425.01 451.04 C 440.67 460.61 446.41 482.87 438.10 499.06 C 432.75 510.96 420.39 518.96 407.59 520.40 C 394.76 521.57 381.86 520.98 369.01 520.99 C 368.99 495.66 368.99 470.34 369.01 445.01 M 382.00 450.76 C 381.99 472.22 381.99 493.68 382.00 515.14 C 391.12 514.76 400.68 515.83 409.34 512.36 C 430.16 502.18 432.08 468.93 412.98 456.02 C 403.95 449.57 392.39 451.34 382.00 450.76 Z" />
<path fill="#000000" opacity="1.00" d=" M 543.01 444.95 C 558.94 445.34 575.23 443.57 590.92 447.05 C 605.54 450.94 615.41 464.69 617.00 479.33 L 617.00 485.55 C 615.35 500.48 605.15 514.13 590.63 518.66 C 575.12 522.64 558.83 520.62 543.01 521.04 C 542.98 495.67 542.99 470.31 543.01 444.95 M 557.00 450.76 C 556.99 472.22 556.99 493.68 557.00 515.15 C 567.33 514.64 579.06 516.38 587.95 509.91 C 605.74 497.82 605.66 467.30 587.37 455.61 C 578.38 449.59 567.17 451.37 557.00 450.76 Z" />
</g>
<g id="#000000ff">
<path fill="#000000" opacity="1.00" d=" M 582.00 393.80 C 589.86 394.04 597.77 393.92 605.62 394.77 C 599.74 395.34 593.88 395.79 588.01 396.23 C 588.01 398.91 588.00 404.27 588.00 406.95 C 590.75 406.97 596.25 407.01 599.00 407.03 C 599.00 407.76 599.00 409.23 599.00 409.96 C 596.25 409.98 590.75 410.02 588.00 410.04 C 587.98 414.59 588.01 419.17 588.00 423.74 C 593.88 423.93 599.79 424.18 605.65 424.94 C 597.77 425.63 589.88 425.86 582.00 426.16 C 581.99 415.37 581.99 404.59 582.00 393.80 Z" />
<path fill="#000000" opacity="1.00" d=" M 187.01 445.01 C 205.00 444.98 223.00 444.99 241.00 445.00 L 241.00 449.99 C 227.66 449.98 214.33 450.01 201.00 450.01 C 201.00 459.00 200.99 467.99 201.00 476.99 C 210.00 476.99 219.00 476.99 228.00 477.01 L 228.00 481.98 C 219.00 481.99 210.00 481.99 201.00 482.01 C 201.00 493.34 200.99 504.66 201.00 515.99 C 214.33 515.98 227.66 516.01 241.00 516.01 L 241.00 520.99 C 223.00 521.01 205.00 521.01 187.01 521.00 C 186.99 495.66 186.99 470.34 187.01 445.01 Z" />
<path fill="#000000" opacity="1.00" d=" M 330.01 445.00 C 334.32 444.98 338.66 444.99 342.99 445.00 C 343.01 470.33 343.01 495.66 342.99 521.00 C 338.65 520.97 334.33 521.00 330.01 521.00 C 329.99 495.66 329.99 470.33 330.01 445.00 Z" />
</g>
</svg>
